<svg width="24" height="24" viewBox="0 0 24 24" fill="none" xmlns="http://www.w3.org/2000/svg">
<g id="Linkedin">
<g id="Group">
<g id="Group_2">
<path id="Vector" d="M8.02025 9.30005H4.80005V19.2H8.02025V9.30005Z" fill="#A09BA3"/>
</g>
</g>
<g id="Group_3">
<g id="Group_4">
<path id="Vector_2" d="M16.7916 9.41615C16.7574 9.40535 16.725 9.39365 16.689 9.38375C16.6458 9.37385 16.6026 9.36575 16.5585 9.35855C16.3875 9.32435 16.2003 9.30005 15.9807 9.30005C14.1033 9.30005 12.9126 10.6653 12.5202 11.1927V9.30005H9.30005V19.2H12.5202V13.8C12.5202 13.8 14.9538 10.4106 15.9807 12.9C15.9807 15.1221 15.9807 19.2 15.9807 19.2H19.2V12.5193C19.2 11.0235 18.1749 9.77705 16.7916 9.41615Z" fill="#A09BA3"/>
</g>
</g>
<g id="Group_5">
<g id="Group_6">
<path id="Vector_3" d="M6.37505 7.95005C7.2449 7.95005 7.95005 7.2449 7.95005 6.37505C7.95005 5.5052 7.2449 4.80005 6.37505 4.80005C5.5052 4.80005 4.80005 5.5052 4.80005 6.37505C4.80005 7.2449 5.5052 7.95005 6.37505 7.95005Z" fill="#A09BA3"/>
</g>
</g>
</g>
</svg>
