<svg width="24" height="24" viewBox="0 0 24 24" fill="none" xmlns="http://www.w3.org/2000/svg">
<g id="cib:tiktok">
<path id="Vector" d="M12.531 0.02025C13.8397 0 15.141 0.012 16.4407 0C16.5195 1.53075 17.07 3.09 18.1905 4.17225C19.3087 5.2815 20.8905 5.78925 22.4295 5.961V9.98775C20.9872 9.9405 19.5382 9.6405 18.2295 9.0195C17.6595 8.7615 17.1285 8.42925 16.6087 8.0895C16.602 11.0115 16.6207 13.9297 16.59 16.8397C16.512 18.2377 16.0507 19.629 15.2377 20.781C13.9297 22.6987 11.6595 23.949 9.32771 23.988C7.89746 24.0697 6.46871 23.6798 5.24996 22.9613C3.23021 21.7703 1.80896 19.59 1.60196 17.25C1.57588 16.7544 1.57188 16.2579 1.58996 15.762C1.76996 13.8593 2.71121 12.039 4.17221 10.8007C5.82821 9.3585 8.14796 8.6715 10.32 9.078C10.3402 10.5592 10.281 12.039 10.281 13.5203C9.28871 13.1993 8.12921 13.2892 7.26221 13.8915C6.62789 14.3094 6.14853 14.9242 5.89796 15.6412C5.69096 16.1483 5.75021 16.7115 5.76221 17.25C5.99996 18.891 7.57796 20.2702 9.26246 20.121C10.3792 20.109 11.4495 19.461 12.0315 18.5123C12.2197 18.18 12.4305 17.8403 12.4417 17.4495C12.54 15.6608 12.501 13.8795 12.513 12.0907C12.5212 8.0595 12.501 4.0395 12.5317 0.021L12.531 0.02025Z" fill="#A09BA3"/>
</g>
</svg>
