<svg width="24" height="24" viewBox="0 0 24 24" fill="none" xmlns="http://www.w3.org/2000/svg">
<g id="globe">
<path id="globe_2" d="M11.9925 19.4933C16.264 19.4933 19.7897 15.9676 19.7897 11.7037C19.7897 7.43973 16.2565 3.91406 11.985 3.91406C7.72102 3.91406 4.20288 7.43973 4.20288 11.7037C4.20288 15.9676 7.72855 19.4933 11.9925 19.4933ZM7.45735 6.98019C8.20316 6.26451 9.12224 5.71456 10.1393 5.40569C9.60439 5.94057 9.15238 6.70145 8.81337 7.62054C8.28603 7.4548 7.82649 7.23633 7.45735 6.98019ZM13.8533 5.41323C14.8703 5.7221 15.7818 6.26451 16.5277 6.98772C16.1585 7.24386 15.7065 7.4548 15.1792 7.62807C14.8402 6.70145 14.3881 5.9481 13.8533 5.41323ZM9.86053 7.88421C10.2749 6.77679 10.8399 5.96317 11.4652 5.66936V8.04994C10.8926 8.02734 10.3577 7.97461 9.86053 7.88421ZM12.5198 5.66936C13.1451 5.96317 13.7177 6.77679 14.1245 7.88421C13.6348 7.97461 13.0924 8.02734 12.5198 8.04994V5.66936ZM5.44591 11.1763C5.55137 9.90318 6.02598 8.72796 6.76426 7.76367C7.21627 8.10268 7.81142 8.39648 8.5045 8.61496C8.30863 9.3909 8.18809 10.2573 8.15043 11.1763H5.44591ZM15.8346 11.1763C15.8044 10.2573 15.6764 9.3909 15.4805 8.61496C16.1736 8.39648 16.7687 8.10268 17.2207 7.76367C17.959 8.72796 18.4336 9.90318 18.5391 11.1763H15.8346ZM12.5198 11.1763V9.10463C13.1903 9.08203 13.8382 9.0067 14.4333 8.88616C14.6066 9.58677 14.7272 10.3627 14.7573 11.1763H12.5198ZM9.22771 11.1763C9.26538 10.3627 9.37838 9.58677 9.55165 8.88616C10.1543 9.0067 10.7947 9.08203 11.4652 9.10463V11.1763H9.22771ZM5.44591 12.231H8.15043C8.18056 13.1652 8.30863 14.0391 8.51203 14.8301C7.82649 15.0485 7.23134 15.3348 6.77933 15.6663C6.03352 14.6945 5.55137 13.5117 5.44591 12.231ZM9.22771 12.231H11.4652V14.3404C10.8022 14.363 10.1543 14.4383 9.55919 14.5589C9.37838 13.8432 9.26538 13.0522 9.22771 12.231ZM12.5198 14.3404V12.231H14.7648C14.7272 13.0522 14.6066 13.8432 14.4258 14.5589C13.8307 14.4383 13.1903 14.363 12.5198 14.3404ZM15.4805 14.8301C15.6764 14.0391 15.8044 13.1652 15.8421 12.231H18.5391C18.4336 13.5117 17.9515 14.6945 17.2057 15.6663C16.7537 15.3348 16.1661 15.0485 15.4805 14.8301ZM12.5198 15.3951C13.0924 15.4177 13.6197 15.4704 14.1169 15.5608C13.7101 16.6456 13.1451 17.4517 12.5198 17.7455V15.3951ZM9.87559 15.5608C10.3653 15.4704 10.9001 15.4177 11.4652 15.3951V17.7455C10.8474 17.4517 10.2824 16.6456 9.87559 15.5608ZM7.47995 16.4422C7.84909 16.1936 8.3011 15.9827 8.82091 15.817C9.15238 16.721 9.60439 17.4668 10.1242 17.9941C9.12224 17.6928 8.21823 17.1504 7.47995 16.4422ZM15.1716 15.817C15.6914 15.9827 16.1434 16.1936 16.5126 16.4422C15.7668 17.1504 14.8628 17.6928 13.8608 17.9941C14.3881 17.4668 14.8326 16.721 15.1716 15.817Z" fill="#A09BA3"/>
</g>
</svg>
