<svg width="61" height="67" viewBox="0 0 61 67" fill="none" xmlns="http://www.w3.org/2000/svg">
<g id="Group">
<path id="Vector" d="M25.5048 11.982C25.1507 12.2515 24.1942 14.6875 23.0241 18.2966C19.0407 30.6382 18.54 30.2762 19.1322 30.884C19.7661 31.5345 19.987 31.0523 22.8519 23.1069C25.921 14.5863 26.7707 11.0534 25.5048 11.982Z" fill="white"/>
<path id="Vector_2" d="M12.535 26.8557C12.282 26.9245 12.2177 27.1365 12.0436 28.2209C11.7936 29.8336 12.4054 31.2445 13.018 30.4839C13.5108 29.853 13.0993 26.7024 12.535 26.8557Z" fill="white"/>
<path id="Vector_3" d="M7.60829 29.9397C5.3833 23.6225 4.44081 21.6468 3.58938 21.6302C2.89883 21.6022 2.90907 22.117 3.63036 23.6892C4.26052 25.0166 5.2658 27.6113 6.18226 30.241C6.93306 32.3981 7.182 32.8049 7.75308 32.9623C8.5543 33.1543 8.51376 32.5076 7.60829 29.9397Z" fill="white"/>
<path id="Vector_4" d="M34.7642 15.3418C34.4208 15.5976 32.2988 19.1977 31.0989 21.5394C30.8107 22.1054 29.9887 23.5425 29.2841 24.7202C27.903 27.0028 27.8553 27.1567 28.3312 27.6451C28.7821 28.1078 28.7599 28.1354 30.9439 24.1933C34.7499 17.3288 36.0008 14.4314 34.7642 15.3418Z" fill="white"/>
<path id="Vector_5" d="M13.2583 19.8794C13.1194 21.506 12.6395 22.5551 13.2556 23.1875C14.2465 24.2044 14.3772 24.1364 14.7884 20.9443C15.5516 15.0301 15.5038 10.3306 14.6753 10.3396C13.8717 10.3742 14.1164 13.734 13.2583 19.8794Z" fill="white"/>
<path id="Vector_6" d="M45.6809 47.6395C47.0274 47.4033 48.1795 46.9172 48.5808 46.4189C49.1382 45.7269 48.7891 44.9891 47.9129 45.0759C42.1079 45.6155 34.9431 47.7681 34.8661 48.9783C34.7918 50.1662 35.7068 50.1445 40.6759 48.8482C42.8628 48.2863 45.1134 47.7396 45.6809 47.6395Z" fill="white"/>
<path id="Vector_7" d="M43.1023 24.6123C41.7146 25.748 38.7874 28.7759 32.1219 34.6838C30.7956 35.857 30.7733 35.8846 30.7053 36.5751C30.6542 37.1308 30.971 37.6843 31.3586 37.6765C31.6792 37.6761 40.8972 29.3949 43.9247 26.3938C45.0922 25.2096 44.691 23.3027 43.1023 24.6123Z" fill="white"/>
<path id="Vector_8" d="M44.7568 57.243C41.285 55.824 34.2008 54.1784 33.3759 54.6183C32.8038 54.9141 33.1653 56.1427 33.8975 56.3644L36.6405 57.1616C40.8591 58.3884 46.3681 59.5018 46.6239 59.1842C47.1384 58.5266 46.6313 58.0065 44.7568 57.243Z" fill="white"/>
<path id="Vector_9" d="M47.1858 33.6557C46.7205 33.912 45.4138 34.57 41.7534 36.2032C40.0987 36.9343 36.9 38.7125 36.6323 39.045C36.0967 39.71 39.0827 38.5739 44.7212 35.9595C45.9414 35.3898 47.1058 34.8894 47.3174 34.8535C48.3143 34.6367 48.0551 33.1814 47.1858 33.6557Z" fill="white"/>
</g>
</svg>
