<svg width="182" height="183" viewBox="0 0 182 183" fill="none" xmlns="http://www.w3.org/2000/svg">
<path id="person.crop.circle.fill" d="M90.9121 182.422C140.746 182.422 181.879 141.289 181.879 91.543C181.879 41.7969 140.658 0.664062 90.8242 0.664062C41.0781 0.664062 0.0332031 41.7969 0.0332031 91.543C0.0332031 141.289 41.166 182.422 90.9121 182.422ZM90.8242 105.869C73.5977 105.781 60.2383 91.3672 60.2383 72.2949C60.0625 54.3652 73.6855 39.4238 90.8242 39.4238C107.963 39.4238 121.41 54.3652 121.41 72.2949C121.41 91.3672 108.051 106.045 90.8242 105.869ZM90.8242 167.393C71.1367 167.393 50.2188 159.219 36.9473 144.98C47.0547 129.863 67.0938 121.074 90.8242 121.074C114.291 121.074 134.506 129.688 144.701 144.98C131.43 159.219 110.512 167.393 90.8242 167.393Z" fill="white" fill-opacity="0.5"/>
</svg>
