<svg width="48" height="48" viewBox="0 0 48 48" fill="none" xmlns="http://www.w3.org/2000/svg">
<g id="camera.circle">
<path id="camera.circle_2" d="M23.9849 38.9866C32.5278 38.9866 39.5792 31.9353 39.5792 23.4074C39.5792 14.8795 32.5128 7.82812 23.9698 7.82812C15.4419 7.82812 8.40564 14.8795 8.40564 23.4074C8.40564 31.9353 15.457 38.9866 23.9849 38.9866ZM23.9849 35.8828C17.0691 35.8828 11.5396 30.3231 11.5396 23.4074C11.5396 16.4916 17.0691 10.947 23.9698 10.947C30.8856 10.947 36.4453 16.4916 36.4603 23.4074C36.4754 30.3231 30.9006 35.8828 23.9849 35.8828ZM17.4308 30.1574H30.5239C32.121 30.1574 32.9648 29.3287 32.9648 27.7467V19.942C32.9648 18.3449 32.121 17.5162 30.5239 17.5162H28.731C28.1584 17.5162 27.9626 17.4258 27.601 17.0491L27.0133 16.4163C26.6216 16.0095 26.2449 15.8136 25.4916 15.8136H22.433C21.6796 15.8136 21.2879 15.9944 20.8962 16.4163L20.3085 17.0491C19.9469 17.4107 19.7661 17.5162 19.1785 17.5162H17.4308C15.8186 17.5162 14.9899 18.3449 14.9899 19.942V27.7467C14.9899 29.3287 15.8186 30.1574 17.4308 30.1574ZM23.9849 28.1535C21.5591 28.1535 19.6155 26.2098 19.6155 23.769C19.6155 21.3432 21.5591 19.3996 23.9849 19.3996C26.4107 19.3996 28.3543 21.3432 28.3543 23.769C28.3543 26.255 26.4107 28.1535 23.9849 28.1535ZM29.9062 21.7952C29.3337 21.7952 28.8666 21.3432 28.8666 20.7556C28.8666 20.183 29.3337 19.731 29.9062 19.731C30.4637 19.731 30.9308 20.183 30.9308 20.7556C30.9308 21.3432 30.4637 21.7952 29.9062 21.7952ZM23.9849 26.6769C25.582 26.6769 26.8777 25.3811 26.8777 23.769C26.8777 22.1719 25.582 20.8761 23.9849 20.8761C22.3727 20.8761 21.077 22.1719 21.077 23.769C21.077 25.3811 22.3727 26.6769 23.9849 26.6769Z" fill="#A09BA3"/>
</g>
</svg>
