<svg width="24" height="22" viewBox="0 0 24 22" fill="none" xmlns="http://www.w3.org/2000/svg">
<g id="person.badge.minus">
<path id="person.badge.minus_2" d="M11.9999 10.6092C13.823 10.6092 15.2996 9.16817 15.2996 7.40397C15.2996 5.6667 13.823 4.28632 11.9999 4.28632C10.1919 4.28632 8.70026 5.6869 8.70026 7.41744C8.7078 9.17491 10.1768 10.6092 11.9999 10.6092ZM11.9999 9.43078C10.9603 9.43078 10.0789 8.54868 10.0789 7.41744C10.0789 6.31313 10.9528 5.4647 11.9999 5.4647C13.0546 5.4647 13.921 6.29966 13.921 7.40397C13.921 8.53521 13.0471 9.43078 11.9999 9.43078ZM11.9999 11.3903C10.6816 11.3903 9.52895 11.6529 8.5722 12.0838C8.94134 12.3397 9.26528 12.6494 9.52895 13.0063C10.222 12.737 11.0507 12.5686 11.9999 12.5686C15.3147 12.5686 17.1754 14.4877 17.1754 15.518C17.1754 15.6392 17.1076 15.693 16.9268 15.693H10.5309C10.5234 16.1105 10.4631 16.4741 10.32 16.8714H16.6933C17.9966 16.8714 18.6219 16.5011 18.6219 15.7065C18.6219 13.8548 16.0379 11.3903 11.9999 11.3903ZM5.5814 19.0733C7.69078 19.0733 9.46868 17.4976 9.46868 15.5988C9.46868 13.6999 7.71338 12.131 5.5814 12.131C3.45696 12.131 1.70166 13.6999 1.70166 15.5988C1.70166 17.5044 3.45696 19.0733 5.5814 19.0733ZM3.63776 16.0634C3.35903 16.0634 3.12549 15.8479 3.11795 15.5988C3.11795 15.3563 3.35903 15.1409 3.63776 15.1409H7.53258C7.81131 15.1409 8.04485 15.3563 8.04485 15.5988C8.04485 15.8479 7.81131 16.0634 7.53258 16.0634H3.63776Z" fill="white"/>
</g>
</svg>
