<svg width="24" height="24" viewBox="0 0 24 24" fill="none" xmlns="http://www.w3.org/2000/svg">
<g id="Group 2608876">
<path id="xmark" d="M0.47797 21.112C-0.146904 21.7369 -0.17666 22.8526 0.492848 23.5072C1.14748 24.1618 2.26332 24.1469 2.8882 23.5221L11.9935 14.4026L21.1137 23.5221C21.7534 24.1618 22.8544 24.1618 23.509 23.5072C24.1488 22.8377 24.1637 21.7517 23.509 21.112L14.4037 11.9926L23.509 2.88797C24.1637 2.24827 24.1637 1.14739 23.509 0.492809C22.8395 -0.146892 21.7534 -0.161769 21.1137 0.477933L11.9935 9.5974L2.8882 0.477933C2.26332 -0.146892 1.1326 -0.176646 0.492848 0.492809C-0.161782 1.14739 -0.146904 2.26315 0.47797 2.88797L9.59815 11.9926L0.47797 21.112Z" fill="white"/>
</g>
</svg>
