<svg width="28" height="28" viewBox="0 0 28 28" fill="none" xmlns="http://www.w3.org/2000/svg">
<g id="rotate.left">
<path id="rotate.left_2" d="M14.9492 4.75099L17.2607 6.46485C17.7705 6.84278 18.3242 6.667 18.3242 6.00782V4.91798H18.6143C20.4688 4.91798 21.6816 6.23634 21.6816 8.09083V9.4795C21.6816 9.83106 21.9717 10.1211 22.3232 10.1211C22.6748 10.1211 22.9648 9.83106 22.9648 9.4795V8.08204C22.9648 5.48927 21.1895 3.71388 18.6055 3.71388H18.3242V2.58009C18.3242 1.90333 17.7793 1.72755 17.2607 2.11427L14.9492 3.83692C14.5713 4.10938 14.5713 4.46974 14.9492 4.75099ZM7.46094 21.8721H16.1621C17.7617 21.8721 18.5967 21.0635 18.5967 19.4375V10.7539C18.5967 9.12794 17.7617 8.31934 16.1621 8.31934H7.46094C5.86133 8.31934 5.02637 9.12794 5.02637 10.7539V19.4375C5.02637 21.0635 5.86133 21.8721 7.46094 21.8721ZM7.5752 20.167C6.99512 20.167 6.73145 19.9297 6.73145 19.332V10.8594C6.73145 10.2617 6.99512 10.0244 7.5752 10.0244H16.0479C16.6279 10.0244 16.8916 10.2617 16.8916 10.8594V19.332C16.8916 19.9297 16.6279 20.167 16.0479 20.167H7.5752Z" fill="white"/>
</g>
</svg>
