<svg width="28" height="28" viewBox="0 0 28 28" fill="none" xmlns="http://www.w3.org/2000/svg">
<g id="rotate.right">
<path id="rotate.right_2" d="M13.042 4.75099C13.4199 4.46974 13.4199 4.10938 13.042 3.83692L10.7305 2.11427C10.2119 1.72755 9.66699 1.90333 9.66699 2.58009V3.71388H9.38574C6.80176 3.71388 5.02637 5.48927 5.02637 8.08204V9.4795C5.02637 9.83106 5.31641 10.1211 5.66797 10.1211C6.01953 10.1211 6.30957 9.83106 6.30957 9.4795V8.09083C6.30957 6.23634 7.51367 4.91798 9.37695 4.91798H9.66699V6.00782C9.66699 6.667 10.2119 6.84278 10.7305 6.46485L13.042 4.75099ZM20.5215 21.8721C22.1299 21.8721 22.9648 21.0635 22.9648 19.4375V10.7539C22.9648 9.12794 22.1299 8.31934 20.5215 8.31934H11.8291C10.2295 8.31934 9.39453 9.12794 9.39453 10.7539V19.4375C9.39453 21.0635 10.2295 21.8721 11.8291 21.8721H20.5215ZM20.416 20.167H11.9346C11.3633 20.167 11.0996 19.9297 11.0996 19.332V10.8594C11.0996 10.2617 11.3633 10.0244 11.9346 10.0244H20.416C20.9961 10.0244 21.2598 10.2617 21.2598 10.8594V19.332C21.2598 19.9297 20.9961 20.167 20.416 20.167Z" fill="white"/>
</g>
</svg>
